<?xml version="1.0" encoding="utf-8"?>
<!-- Generator: Adobe Illustrator 21.0.0, SVG Export Plug-In . SVG Version: 6.00 Build 0)  -->
<svg version="1.1" id="Layer_2" xmlns="http://www.w3.org/2000/svg" xmlns:xlink="http://www.w3.org/1999/xlink" x="0px" y="0px"
	 viewBox="0 0 1210.7 405.6" style="enable-background:new 0 0 1210.7 405.6;" xml:space="preserve">
<style type="text/css">
	.st0{fill:#31205F;}
	.st1{fill:#FFFFFF;}
</style>
<path class="st0" d="M358.9,34.5c1.3-8.5,0.2-17.5-0.6-26.1c-0.6-5.9-4.1-8.5-10.9-8.4C293.9,0.4,240.5,0.2,187,0.2
	c-3.5,0-6.9,0.3-10.4,0.8c-9.6,1.6-16.1,6.9-17,16.5c-0.7,8.6,0.8,17.4,1.8,26c0.6,5.6,3.8,7.7,9.8,7.5c20.3-0.4,40.4-0.2,61.8-0.2
	v9.8c0,55.1,0.1,110.2,0.1,165.3c0,3.5,0,7,0.3,10.4c1.4,13.1,8.4,19.8,21.6,19.9c7.4,0.1,14.9-0.9,22.3-1.5
	c6.2-0.5,8.7-3.3,8.6-10.3c-0.3-61.3-0.3-122.5-0.3-183.8v-9.8c18.7,0,35.4,0,52.4,0C351,50.9,357,47.1,358.9,34.5"/>
<path class="st0" d="M0,107.8v102.8c1,12,3.6,23.2,10.7,33.1c4.6,6.4,10.9,11.5,18,14.9c11.9,5.7,26.5,6.8,41.3,1.8
	c13.4-4.6,25.6-12.9,38.4-19.7c0,0,0.9,2.2,1.3,2.8c8.3,15.1,35.5,15.6,35.5,15.6l0.9,0l0,0c46.5,0,49.8-34,49.8-34
	c1.9-12.9-6.3-14.1-6.3-14.1c-3.9,4.6-13,5.9-16,6.1c-9.8,0.6-12.5-3.5-12.5-13.3v-97.9l0-6c-0.1-15.3-6.9-22.5-22.3-22.8
	c-8.9-0.2-17.8,1.7-26.8,2.7c-6.1,0.7-7.9,4-7.9,10.3v91.9l0,2.2c0.1,11.2-4.6,17.9-13.7,21.3c-19,7.1-32.3,4.5-34.8-13.4
	c-0.4-2.6-0.5-4.4-0.5-8.9v-4.2V90.3c0-6.1-1.9-9.2-7.7-9.9c-8.7-1-17.4-2.8-26-2.6C6.4,78.2,0,85.1,0,99.8V107.8z"/>
<path class="st0" d="M508.5,216.8c-3.5,3-7.9,4.3-10.8,4.8c-6.5,0.8-8.9-3.1-9-9.1c0-3.2-0.1-6.4-0.1-9.6
	c-0.3-26.7,0.4-53.5-1.3-80.1c-1.5-24.4-15.2-41.5-38.9-48.5c-24.5-7.3-49.2-6.1-73.1,2.9c-21.3,8-26.8,28.4-15,45.3
	c20.3-1.5,39.4-5.4,58.4-5.7c13.6-0.2,21.9,11.8,22.3,27.4c-16.6,0-32.6-0.5-48.5,0.1c-27.7,1-46.9,16.7-51.7,42.5
	c-1.5,8.3-1.4,17.1-0.6,25.5c3.1,34.3,30.2,54.6,63.5,46c14.3-3.7,27.6-11.6,42.1-17.9c7.9,15,21.7,17.1,37.8,15.6
	c30.2-3,30-28.3,30-28.3C514,218.7,508.5,216.8,508.5,216.8 M442.6,200.4c-0.1,1.4-1.7,3.2-3.1,4c-11.6,7-24.1,11.4-37.9,10.9
	c-9.2-0.3-14.4-4.8-15.5-13c-1.1-9.1,3.1-16.3,12.1-17.8c14.4-2.5,28.9-3.8,44.4-5.7C442.7,186.7,442.9,193.6,442.6,200.4"/>
<path class="st0" d="M624.1,210.8c-4.5,6-12.3,7-15,7.4c-16.9,2.3-26.3-9.8-26.3-26.1c-0.1-46.5,0-93,0-139.5c0-9.6,0.1-19.2,0-28.9
	c-0.2-13.6-6.2-21.4-19.3-23.2c-6.9-1-14.4-0.2-21.3,1.1c-7,1.4-10.4,5.4-10.4,13.9l0,17.6V201c0,6.7,0.4,13.4,1.5,20
	c2.7,16.1,10.5,28.8,27.2,33.3c6,1.6,12,2.4,18,2.5l0,0c47,4.2,51.8-33.5,51.8-33.5C632.1,211.9,624.1,210.8,624.1,210.8z"/>
<path class="st0" d="M825,213.6c-0.9-6.3-3.8-9.4-10.7-8.3c-15.8,2.6-36.7-2.7-48.7-17.2c-9-10.8-17.6-22.6-26.1-34
	c-0.1,0.1,0-0.1,0.2-0.3c1.8-1.1,3.7-2.2,5.4-3.3c17.1-11.3,39.6-32.5,45.9-52.6c5.7-18.1-3.6-30.8-22.4-31.5
	c-2.4-0.1-4.8-0.1-7.2,0.1c-14.4,1.2-11.2,3-15.1,16.8c-0.5,1.8-0.9,3.7-1.6,5.4c-9.8,22-31.1,39.8-47.3,52.1c0-39.5,0-77.4,0-115.3
	c0-16.8-4.5-22.8-21.3-24.8c-7.4-0.9-15.3,0.6-22.8,1.9c-6.1,1-8.8,4.8-8.8,11.9c0.2,53.7,0.2,107.4,0.2,161.4h-0.1
	c0,17,0,34,0,51.1c0,3.5,0,6.9,0.3,10.4c1.4,13.1,8.4,19.7,21.6,19.9c7.4,0.1,14.9-0.9,22.3-1.5c6.2-0.5,8.7-3.3,8.6-10.3
	c-0.1-20.9-0.2-41.8-0.2-62.7c0-1.9,0-3.8,0-5.7c0.6-0.2,1.2-0.4,1.8-0.6l41.7,50c8.1,9.7,19.5,25,31.6,29.1
	c13.4,4.6,26.4,3.8,37.7-5.5C821.3,240.7,826.9,226.5,825,213.6z"/>
<path class="st0" d="M817.3,301.8L817.3,301.8c-0.4-0.8-0.5-1.7-0.2-2.5c0.3-0.8,1-1.4,1.9-1.7c0.9-0.3,2.4-0.1,3.1,0.2
	c4.2,1.3,6.9,3,17.2,3.6h0c6.7,0.2,15.3,1.1,27-0.9c21.2-4.7,22.5-20.4,21.7-28.3c-2.3-12.8-5-27.6-4.5-40.9
	c2.4-66.1,43.8-121.6,101.1-145.3c21-8.7,44.2-13.1,68.5-12.2c90.3,3.3,160.8,79.3,157.5,169.6c-1,28.1-9.1,54.3-22.5,77
	c-12.6,21.4-29.9,39.6-50.5,53.3l0,0c0,0-37.7,30.1-98.3,31.5l0-0.1c0,0-20.6,1.9-49.1-2.5c-40-5.1-71.9-18.1-96.9-31.7
	c-1.2-0.7-4.5-2.7-8.2-4.9c-32.1-17.7-51.4-40.2-60.3-52C822.6,311.1,819.5,306.6,817.3,301.8z"/>
<circle class="st1" cx="1097.6" cy="189.7" r="26.9"/>
<circle class="st0" cx="1107.3" cy="181.3" r="8.1"/>
<circle class="st1" cx="997.1" cy="187.6" r="26.9"/>
<circle class="st0" cx="1006.8" cy="179.2" r="8.1"/>
<path class="st1" d="M987.4,256.1c52.6,31.4,111.5,11,111.5,11s4-1.6,5.9-1.4c1.9,0.2,3.5,1.2,4.6,2.7c1,1.5,1.3,3.5,0.8,5.2
	c0,0-9,62.8-66.2,64.3c-0.6,0.2-1.3,0.3-1.9,0.3c-1.5,0-3.1-0.2-4.7-0.3c-0.1,0-0.1,0-0.2,0l0.1,0.1c-0.7-0.1-1.4-0.2-2.1-0.3
	c-0.1,0-0.2,0-0.3,0c-0.6,0-1.2-0.1-1.9-0.2c-1.6-0.2-3.2-0.4-4.8-0.7c-0.8-0.1-1.5-0.4-2.1-0.8c-55.6-13.1-51.9-76.3-51.9-76.3l0,0
	l0,0c-0.2-1.9,0.5-3.6,1.8-5c1.3-1.3,3.2-1.9,5-1.7c1.9,0.2,5.8,2.7,5.8,2.7"/>
</svg>
