<svg xmlns="http://www.w3.org/2000/svg" width="189.743" height="45.934" viewBox="0 0 189.743 45.934"><defs><style>.a{fill:#fdd600;}.b{fill:#fff;}.c{fill:#202020;}</style></defs><path class="a" d="M162.592,43.8c-18.8,4.11-63.55.863-98.259,1.768S3.819,41.795.373,25.765C-2.265,13.478,8.653,1.021,42.54.8,78.679.575,104.7-.542,133.672.333c28.54.857,54.715-1.062,56.006,18.788C190.77,35.9,176.986,40.648,162.592,43.8Z" transform="translate(0.004 -0.003)"/><path class="b" d="M129.571,45.272h-3.018a.754.754,0,0,1,0-1.509h3.018a.754.754,0,1,1,0,1.509Zm3.621,0a.754.754,0,0,1,0-1.509h2.987a.754.754,0,1,1,0,1.509h-3.018Zm-10.181,0h-3.018a.754.754,0,0,1,0-1.509h3.018a.754.754,0,1,1,0,1.509Zm16.766-.06a.754.754,0,0,1,0-1.509q1.521,0,3.018-.072a.755.755,0,1,1,.048,1.509q-1.473.048-3.018.072Zm-23.35,0h0l-3.018-.042a.782.782,0,0,1,0-1.563h0l3.018.042a.764.764,0,0,1-.024,1.527Zm-6.584-.091h0l-3.018-.042a.754.754,0,1,1,0-1.509l3.018.042a.754.754,0,0,1,0,1.509Zm-49.1-.042a.773.773,0,1,1-.03-1.545h3.018a.772.772,0,0,1,.766.748.76.76,0,0,1-.748.76H60.734Zm-3.621,0h0c-1.014,0-2.016,0-3.018-.048a.755.755,0,1,1,.036-1.509c.984,0,1.98.042,3.018.048a.754.754,0,1,1,0,1.509Zm46.109-.036h0L100.216,45a.754.754,0,1,1,0-1.509h0l3.018.042a.754.754,0,0,1,0,1.509Zm43.1,0a.755.755,0,1,1-.03-1.509c1.014-.042,2.01-.091,2.975-.145a.766.766,0,0,1,.8.712.754.754,0,0,1-.712.712c-.972.054-1.974.1-3.018.145Zm-79.061,0a.754.754,0,1,1,0-1.509h.489l2.511-.054h0a.754.754,0,1,1,0,1.509l-2.5.054h-.489Zm29.343-.06H93.6a.766.766,0,0,1-.748-.766.754.754,0,0,1,.754-.742h3.018a.766.766,0,0,1,.76.682.754.754,0,0,1-.736.742Zm-46.109,0h0c-1.014-.042-2.01-.084-3.018-.139a.754.754,0,0,1,.078-1.5c.984.048,1.974.1,2.981.133a.755.755,0,0,1-.03,1.509Zm23.35,0a.754.754,0,0,1,0-1.509h3.018a.754.754,0,0,1,0,1.509Zm16.168,0H87.011a.754.754,0,0,1,0-1.509h3.018a.754.754,0,0,1,0,1.509Zm-6.56-.169H80.451a.754.754,0,0,1,0-1.509h3.018a.754.754,0,0,1,0,1.509Zm69.441-.217a.754.754,0,0,1-.054-1.5c1.02-.078,2.01-.169,2.963-.266a.754.754,0,1,1,.151,1.5c-.96.1-1.961.193-3.018.272ZM43.962,44.505h-.054c-1.014-.072-2.016-.157-3.018-.247a.755.755,0,1,1,.139-1.5c.978.091,1.967.169,2.969.241a.755.755,0,1,1-.054,1.509Zm115.5-.6a.754.754,0,0,1-.109-1.5c1.05-.151,2.028-.32,2.915-.495h.139a.755.755,0,1,1,.308,1.479l-.157.03c-.905.181-1.913.356-3.018.513Zm-122.049,0h-.091c-1.014-.121-2.01-.253-2.987-.392a.739.739,0,1,1,.217-1.461c.96.133,1.943.266,2.945.38a.754.754,0,0,1-.084,1.5Zm-6.518-.954h-.133c-1.02-.187-2.016-.38-2.963-.6a.754.754,0,1,1,.32-1.473c.929.2,1.907.392,2.909.6a.754.754,0,0,1-.133,1.5Zm135.188-.314a.754.754,0,0,1-.163-1.491c1.008-.229,1.98-.465,2.885-.694a.748.748,0,0,1,.917.537.76.76,0,0,1-.543.923c-.917.235-1.9.477-2.927.706ZM24.463,41.506a.761.761,0,0,1-.2,0c-1-.314-1.98-.591-2.921-.917a.754.754,0,1,1,.465-1.43c.9.29,1.853.573,2.83.839a.754.754,0,0,1-.193,1.485Zm147.97-.6a.754.754,0,0,1-.223-1.473c.972-.314,1.907-.64,2.776-.978a.76.76,0,0,1,.549,1.412c-.9.344-1.865.682-2.873,1a.76.76,0,0,1-.229.06Zm-154.2-1.521a.718.718,0,0,1-.3-.06c-.972-.4-1.9-.845-2.764-1.292a.756.756,0,0,1,.7-1.34c.821.435,1.714.851,2.649,1.243a.75.75,0,0,1-.29,1.448Zm160.319-.923a.754.754,0,0,1-.344-1.424,24.092,24.092,0,0,0,2.511-1.461.76.76,0,1,1,.839,1.261,28.461,28.461,0,0,1-2.692,1.569.748.748,0,0,1-.314.078ZM12.453,36.267a.736.736,0,0,1-.435-.145A19.608,19.608,0,0,1,9.6,34.137a.754.754,0,1,1,1.056-1.074,18.709,18.709,0,0,0,2.2,1.811.754.754,0,0,1-.441,1.37ZM183.93,34.747a.748.748,0,0,1-.537-.229.76.76,0,0,1,0-1.068,14.365,14.365,0,0,0,1.847-2.161.756.756,0,1,1,1.249.851,16.3,16.3,0,0,1-2.028,2.414A.76.76,0,0,1,183.93,34.747ZM7.9,31.584a.754.754,0,0,1-.64-.356,14.068,14.068,0,0,1-1.37-2.83.754.754,0,1,1,1.424-.483,12.523,12.523,0,0,0,1.207,2.529.754.754,0,0,1-.241,1.038.736.736,0,0,1-.38.1Zm179.631-2.275a.851.851,0,0,1-.266-.048.76.76,0,0,1-.441-.972,14.343,14.343,0,0,0,.73-2.746.756.756,0,1,1,1.491.253,16.375,16.375,0,0,1-.809,3.018.754.754,0,0,1-.706.495ZM5.874,25.392a.754.754,0,0,1-.754-.7v-.954a12.837,12.837,0,0,1,.187-2.209.754.754,0,1,1,1.485.26,11.569,11.569,0,0,0-.163,1.943q0,.425,0,.851a.754.754,0,0,1-.7.809Zm182.673-2.541a.754.754,0,0,1-.754-.736A8.733,8.733,0,0,0,187.745,21a15.688,15.688,0,0,0-.217-1.738.755.755,0,0,1,1.485-.278,17.443,17.443,0,0,1,.235,1.913c.03.4.048.8.054,1.207a.748.748,0,0,1-.736.773ZM7.154,19.025a.773.773,0,0,1-.344-.078.76.76,0,0,1-.332-1.014A14.732,14.732,0,0,1,8.2,15.3a.748.748,0,0,1,1.068-.109.76.76,0,0,1,.109,1.062,12.819,12.819,0,0,0-1.557,2.36A.754.754,0,0,1,7.154,19.025Zm180.029-2.547a.748.748,0,0,1-.682-.428,11.468,11.468,0,0,0-1.5-2.36.754.754,0,0,1,1.165-.954,13.089,13.089,0,0,1,1.7,2.662.76.76,0,0,1-.356,1.008.8.8,0,0,1-.326.072ZM11.336,14.034a.754.754,0,0,1-.477-1.34,24.031,24.031,0,0,1,2.529-1.78.754.754,0,1,1,.785,1.285,22.366,22.366,0,0,0-2.36,1.666.742.742,0,0,1-.477.169Zm171.634-2.48a.754.754,0,0,1-.441-.145,18.492,18.492,0,0,0-2.462-1.491A.754.754,0,1,1,180.75,8.6a18.953,18.953,0,0,1,2.661,1.6.754.754,0,0,1-.441,1.364ZM16.949,10.612a.754.754,0,0,1-.314-1.406c.893-.41,1.841-.8,2.824-1.159a.755.755,0,1,1,.519,1.418c-.948.344-1.859.718-2.716,1.11A.718.718,0,0,1,16.949,10.612Zm160.143-1.98a.8.8,0,0,1-.235-.036,25.544,25.544,0,0,0-2.818-.821.748.748,0,0,1-.549-.911.76.76,0,0,1,.917-.549c1.032.253,2.016.543,2.927.851a.754.754,0,0,1-.241,1.467ZM23.153,8.385a.748.748,0,0,1-.724-.549.76.76,0,0,1,.519-.935c.941-.26,1.925-.513,2.939-.742a.766.766,0,1,1,.3,1.5c-.984.223-1.949.465-2.861.724A.8.8,0,0,1,23.153,8.385ZM170.707,7.063h-.133c-.923-.163-1.907-.314-2.927-.447a.755.755,0,0,1,.2-1.5c1.038.139,2.046.29,2.987.459a.754.754,0,0,1-.127,1.5ZM29.556,6.955a.754.754,0,0,1-.127-1.5C30.4,5.289,31.4,5.138,32.447,5a.755.755,0,1,1,.2,1.5c-1,.133-1.98.284-2.933.447Zm134.621-.766H164.1q-1.461-.133-2.969-.235a.754.754,0,0,1-.7-.809.766.766,0,0,1,.809-.7c1.02.072,2.022.151,3.018.241a.755.755,0,0,1-.066,1.509ZM36.08,6.1a.754.754,0,0,1-.066-1.5C36.992,4.5,38,4.42,39.032,4.353a.756.756,0,0,1,.1,1.509c-1,.06-2,.145-2.963.235ZM157.6,5.76h-.042c-.978-.048-1.973-.091-2.981-.127a.755.755,0,0,1,.054-1.509c1.014.036,2.016.078,3.018.127a.755.755,0,0,1-.03,1.509ZM42.653,5.681a.754.754,0,1,1,0-1.509c.978-.036,1.98-.06,3.018-.078a.754.754,0,1,1,0,1.509c-1.014,0-2.01.042-2.975.078Zm6.584-.1a.754.754,0,1,1,0-1.509h3.018a.754.754,0,0,1,0,1.509Zm101.777-.06h0L148,5.458a.766.766,0,0,1-.742-.773.754.754,0,0,1,.754-.736h0l3.018.066a.754.754,0,1,1,0,1.509Zm-95.193,0a.754.754,0,0,1,0-1.509l3.018-.03h0a.754.754,0,1,1,0,1.509Zm6.56-.072a.754.754,0,1,1,0-1.509L65.4,3.907h0a.754.754,0,0,1,0,1.509Zm82.078-.066h0l-3.018-.054a.754.754,0,0,1-.742-.766.773.773,0,0,1,.742-.742l3.018.054a.754.754,0,0,1,0,1.509Zm-75.44,0a.754.754,0,1,1,0-1.509l3.018-.042a.766.766,0,0,1,.766.748.748.748,0,0,1-.742.76l-3.018.042ZM75.6,5.295a.754.754,0,1,1,0-1.509l3.018-.048a.76.76,0,0,1,.766.748.748.748,0,0,1-.742.76l-3.018.048Zm62.217-.03h0L134.8,5.192a.755.755,0,0,1,.042-1.509l3.018.072a.748.748,0,0,1,.736.766A.76.76,0,0,1,137.822,5.265ZM82.141,5.18a.754.754,0,1,1,0-1.509l3.018-.042a.754.754,0,0,1,0,1.509Zm49.1-.084h0l-3.018-.06a.748.748,0,0,1-.736-.766.772.772,0,0,1,.766-.742l3.018.06a.754.754,0,1,1,0,1.509Zm-42.512,0a.754.754,0,0,1,0-1.509l3.018-.036h0a.754.754,0,1,1,0,1.509Zm6.6-.115a.754.754,0,0,1,0-1.509h3.018a.773.773,0,0,1,.766.748.76.76,0,0,1-.779.76H95.316Zm29.343,0h0l-3.018-.042a.755.755,0,0,1,.024-1.509h0l3.018.042a.754.754,0,0,1,0,1.509Zm-22.753-.042a.754.754,0,1,1,0-1.509h3.018a.754.754,0,1,1,0,1.509Zm16.168,0h-3.018a.754.754,0,0,1,.006-1.509h3.018a.742.742,0,1,1-.006,1.485Zm-9.584,0a.748.748,0,0,1-.754-.748.766.766,0,0,1,.754-.76h3.018a.754.754,0,0,1,0,1.509Z" transform="translate(-2.028 -1.362)"/><path class="c" d="M159.024,33.134a.453.453,0,0,0-.453.453,1.325,1.325,0,0,1-2.215,1.153,1.527,1.527,0,0,1-.422-1.129V27.038a.453.453,0,0,0-.887-.115c-.489,1.865-2.149,6.91-3.947,7.846a1.207,1.207,0,0,1-1.207,0,.736.736,0,0,1-.4-.543V29.1c0-1.074-.253-2.5-2.414-2.5a4.93,4.93,0,0,0-2.927,1.448,1.569,1.569,0,0,0-1.811-1.448,2.408,2.408,0,0,0-2.124,2.263c-.851,5.064-2.619,6.3-3.537,6.216a1.135,1.135,0,0,1-.935-1.255V17.533a.453.453,0,1,0-.905,0v10.26c-.036.217-.326,1.768-1.382,2-.519.115-1.322-.718-1.66-1.165a3.15,3.15,0,0,0-3.06-2.064c-1.129,0-3.259.917-3.259,4.394a7.347,7.347,0,0,0,.048,1.05c-.181.881-.881,3.018-2.136,3.018-.495,0-.809-.652-1.267-1.726-.531-1.249-1.207-2.891-2.909-3.44l2.6-2.535a.454.454,0,0,0-.646-.64L117.158,30.6V17.545a.453.453,0,0,0-.905,0V27.961c-.205.453-1.249,2.758-2.493,5.269-.459.935-.929,1.467-1.424,1.617-.646.205-1.412-.229-2.3-.736l-.127-.066a2.9,2.9,0,0,0-2.414-.084l5.015-6.464a.465.465,0,0,0,0-.6.453.453,0,0,0-.6-.072,4.339,4.339,0,0,1-1.5.543,2.251,2.251,0,0,1-1.213-.314,3.555,3.555,0,0,0-1.877-.465c-1.062.115-2.287,1.388-3.826,3.971A4.411,4.411,0,0,0,102.4,29.38a6.022,6.022,0,0,1-1.593-2.613.453.453,0,0,0-.356-.314.447.447,0,0,0-.441.175c0,.03-1.738,2.33-3.531,4.828v-.489c0-3.965-2.414-4.394-3.446-4.394s-3.253.917-3.253,4.394a8.609,8.609,0,0,0,.036.984A19.5,19.5,0,0,1,87.1,34.805a.984.984,0,0,1-1.563-.549V29.1c0-1.074-.253-2.5-2.414-2.5a4.93,4.93,0,0,0-2.927,1.448A1.569,1.569,0,0,0,78.382,26.6c-1.05,0-1.515.73-2,1.5-.326.513-1.3,1.811-1.859,2.517a4.285,4.285,0,0,0-1.038-1.086,5.987,5.987,0,0,1-1.587-2.613.459.459,0,0,0-.356-.314.447.447,0,0,0-.441.175s-2.5,3.343-4.6,6.355c-.948,1.394-2.082,2.179-3.054,2.076a1.811,1.811,0,0,1-1.394-.984,12.016,12.016,0,0,0,3.79-4.285c.6-1.177.5-2.245-.272-2.855a3.048,3.048,0,0,0-3.681.4c-1.648,1.394-1.78,4.261-.972,6.434-.459.29-.905.531-1.316.736-1.207.6-1.364.519-2.064.066-.217-.145-.489-.326-.845-.519a3.277,3.277,0,0,0-2.6,0l5.269-6.922a.465.465,0,0,0,0-.6.459.459,0,0,0-.6-.06,4.6,4.6,0,0,1-1.967.8,2.559,2.559,0,0,1-1.056-.38,2.9,2.9,0,0,0-1.811-.483c-.966.133-1.3.935-1.889,2.414-.229.561-.513,1.261-.9,2.082-1.135,2.444-2.74,3.965-4.188,3.965-1.207,0-2.837,0-2.837-3.778,0-1.72.435-3.772,2.5-3.772a2.028,2.028,0,0,1,1.811,1.159.453.453,0,1,0,.785-.453,2.885,2.885,0,0,0-2.583-1.611,3.084,3.084,0,0,0-2.951,2.01.422.422,0,0,0-.175,0,6.373,6.373,0,0,1-4.382-1.811.453.453,0,0,0-.6-.03.459.459,0,0,0-.042.634A6.506,6.506,0,0,1,39.673,31.3c0,2.414-1.593,3.778-2.7,3.778-1.207,0-1.925-.821-1.925-2.245V27.05a.453.453,0,1,0-.905,0v5.758a2.48,2.48,0,0,1-2.378,2.245c-1.1,0-1.811-.809-1.811-2.106V27.292a.453.453,0,0,0-.241-.4.447.447,0,0,0-.459,0l-3.3,2.149a.471.471,0,1,0,.549.766l2.6-1.7V32.94A2.711,2.711,0,0,0,31.8,35.958a3.482,3.482,0,0,0,2.74-1.491,2.613,2.613,0,0,0,2.468,1.491c1.738,0,3.621-1.883,3.621-4.683a8.021,8.021,0,0,0-.447-2.649,6.337,6.337,0,0,0,3.229.863,8.449,8.449,0,0,0-.181,1.811c0,4.128,1.9,4.683,3.742,4.683s3.7-1.678,5.009-4.49c.392-.839.682-1.551.917-2.118.537-1.328.748-1.811,1.171-1.853a2.227,2.227,0,0,1,1.207.386,3.187,3.187,0,0,0,1.479.489,2.722,2.722,0,0,0,.712-.109l-5.323,6.94a.459.459,0,0,0,.036.6.453.453,0,0,0,.6.054c.6-.435,2.414-1.448,3.488-.881a9.01,9.01,0,0,1,.779.471c.954.6,1.388.76,2.957,0q.682-.338,1.3-.724a2.746,2.746,0,0,0,2.064,1.388c1.328.133,2.722-.754,3.929-2.48,1.533-2.2,3.265-4.551,4.092-5.667a5.643,5.643,0,0,0,1.587,2.257,3.319,3.319,0,0,1,1.3,2.07,2.625,2.625,0,0,1-.537,2,2.758,2.758,0,0,1-2.885.887,1.756,1.756,0,0,1-1.418-1.442.453.453,0,1,0-.9.1,2.613,2.613,0,0,0,2.082,2.221,3.917,3.917,0,0,0,1.014.133,3.476,3.476,0,0,0,2.837-1.358,3.549,3.549,0,0,0,.706-2.68A4.044,4.044,0,0,0,75,31.5c.435-.561,1.756-2.275,2.173-2.927.489-.766.706-1.08,1.207-1.08s.917.054.917,1.117V35.68a.453.453,0,1,0,.905,0V29.259c.537-.6,1.811-1.768,2.885-1.768,1.147,0,1.515.386,1.515,1.593v5.184a1.774,1.774,0,0,0,1.056,1.473,1.811,1.811,0,0,0,.839.211,1.967,1.967,0,0,0,1.141-.386A16.363,16.363,0,0,0,90,33.182c.422,1.811,1.473,2.77,3.132,2.77A2.942,2.942,0,0,0,96.2,33.429c1.521-2.167,3.217-4.478,4.038-5.583a5.685,5.685,0,0,0,1.623,2.281,3.289,3.289,0,0,1,1.31,2.064,2.6,2.6,0,0,1-.543,2,2.758,2.758,0,0,1-2.885.887,1.756,1.756,0,0,1-1.412-1.454.453.453,0,1,0-.9.1,2.631,2.631,0,0,0,2.106,2.221,3.917,3.917,0,0,0,1.014.133,3.452,3.452,0,0,0,2.837-1.358,3.519,3.519,0,0,0,.706-2.68,3.127,3.127,0,0,0-.115-.483c1.961-3.422,3.018-4.019,3.458-4.068a2.7,2.7,0,0,1,1.4.38,2.951,2.951,0,0,0,1.7.4l.253-.048-5.432,7a.453.453,0,0,0,.048.6.459.459,0,0,0,.308.121.447.447,0,0,0,.3-.109s2.1-1.811,3.476-1.014l.121.066c1.026.6,2,1.129,3.018.815a3.634,3.634,0,0,0,1.974-2.082c.64-1.3,1.207-2.541,1.678-3.506V35.68a.453.453,0,1,0,.905,0v-3.8l1.267-1.207c1.648.223,2.263,1.648,2.855,3.018.5,1.207.972,2.281,2.1,2.281,1.261,0,2.046-1.117,2.5-2.136a2.909,2.909,0,0,0,2.939,2.118c2.227,0,3.356-1.672,3.356-4.961a5.435,5.435,0,0,0-.03-.712,2.136,2.136,0,0,0,1.207.459,1.207,1.207,0,0,0,.3,0,2.179,2.179,0,0,0,1.207-.718v3.85a2.034,2.034,0,0,0,1.774,2.161c1.587.139,3.621-1.636,4.52-6.989.145-.863.676-1.509,1.207-1.509s.917.054.917,1.117V35.68a.453.453,0,0,0,.905,0V29.259c.537-.6,1.811-1.768,2.885-1.768,1.147,0,1.515.386,1.515,1.593v5.184a1.636,1.636,0,0,0,.833,1.322,2.112,2.112,0,0,0,2.112,0c1.491-.791,2.728-3.494,3.506-5.631v3.657a2.233,2.233,0,1,0,4.448,0,.447.447,0,0,0-.471-.483Zm-97.347.247c-.6-1.811-.483-4.116.791-5.2a2.643,2.643,0,0,1,1.654-.646A1.418,1.418,0,0,1,65,27.8c.561.447.26,1.273,0,1.726a10.96,10.96,0,0,1-3.325,3.85ZM93.15,35.035c-1.05,0-2.414-.422-2.414-4.056,0-2.752,1.479-3.488,2.348-3.488,1.666,0,2.541,1.207,2.541,3.488a8.449,8.449,0,0,1-.217,2.094.326.326,0,0,0-.03.127A2.156,2.156,0,0,1,93.15,35.035Zm35.668,0c-1.05,0-2.444-.422-2.444-4.056,0-2.752,1.479-3.488,2.354-3.488,1.66,0,2.541,1.207,2.541,3.488,0,3.633-1.4,4.056-2.45,4.056Z" transform="translate(-10.212 -6.774)"/><path class="c" d="M273.491,33.295a.453.453,0,0,0-.453.453,1.321,1.321,0,0,1-.356.972,1.207,1.207,0,0,1-2.016-1.014V28.014h0V17.833a.453.453,0,1,0-.905,0V27.917c-.163.368-.887,2.04-2.414,5.033-1.1,2.2-2.287,2.112-2.625,2.034a.893.893,0,0,1-.742-.791v-4.43c0-2.118-1.08-3.482-2.752-3.482a3.446,3.446,0,0,0-2.613,1.159v-.779a.453.453,0,0,0-.254-.41.471.471,0,0,0-.477.048l-2.909,2.245a.453.453,0,0,0,.549.718l2.185-1.684V41.159a.453.453,0,1,0,.905,0V29.088a2.927,2.927,0,0,1,2.613-1.907c1.358,0,1.847,1.334,1.847,2.577v4.43a1.811,1.811,0,0,0,1.461,1.672,2.221,2.221,0,0,0,.483.054c.76,0,2.07-.374,3.162-2.565.682-1.358,1.207-2.414,1.581-3.247v3.621a2.124,2.124,0,0,0,2.136,2.215,2.028,2.028,0,0,0,1.412-.549,2.161,2.161,0,0,0,.634-1.623.459.459,0,0,0-.453-.471Z" transform="translate(-101.027 -6.893)"/><circle class="c" cx="0.7" cy="0.7" r="0.7" transform="translate(150.936 27.639)"/><path class="c" d="M240.14,27.08a.7.7,0,1,0-.7-.7A.7.7,0,0,0,240.14,27.08Z" transform="translate(-94.931 -10.183)"/></svg>