<?xml version="1.0" encoding="UTF-8"?>
<svg width="32px" height="32px" viewBox="0 0 32 32" version="1.1" xmlns="http://www.w3.org/2000/svg" xmlns:xlink="http://www.w3.org/1999/xlink">
    <!-- Generator: Sketch 57.1 (83088) - https://sketch.com -->
    <title>logo copy@2x</title>
    <desc>Created with Sketch.</desc>
    <g id="gotowe-designy" stroke="none" stroke-width="1" fill="none" fill-rule="evenodd">
        <g id="notifications" transform="translate(-48.000000, -112.000000)" fill="#FFFFFF">
            <g id="1" transform="translate(46.000000, 59.000000)">
                <g id="logo-copy" transform="translate(2.000000, 53.000000)">
                    <path d="M16,0 C24.7313589,0 31.8292047,6.99390104 31.9969636,15.6851293 L32,16 L32,32 L16,32 C7.163444,32 0,24.836556 0,16 C0,7.163444 7.163444,0 16,0 Z M18.6096852,12 C17.5607141,12 16.6213147,12.46189 16.0010221,13.186165 C15.3777995,12.46189 14.4392859,12 13.3888838,12 C12.7957798,12 12.2395403,12.1487398 11.7526007,12.4073718 C10.7078544,12.9664463 10,14.0413364 10,15.2766204 C10,15.6302642 10.0595557,15.9694224 10.1674238,16.2867207 C10.7491482,18.8133872 16.0010221,22 16.0010221,22 C16.0010221,22 21.2494208,18.8134531 21.8319629,16.2867207 C21.939831,15.9694224 22,15.6298033 22,15.2766204 C22,14.0417973 21.2921456,12.9672364 20.2473311,12.4073718 C19.7614819,12.1487398 19.2042202,12 18.6096852,12 Z" id="Combined-Shape"></path>
                </g>
            </g>
        </g>
    </g>
</svg>