<?xml version="1.0" encoding="UTF-8"?>
<svg width="16px" height="16px" viewBox="0 0 16 16" version="1.1" xmlns="http://www.w3.org/2000/svg" xmlns:xlink="http://www.w3.org/1999/xlink">
    <title>fb@2x</title>
    <g id="gotowe-designy" stroke="none" stroke-width="1" fill="none" fill-rule="evenodd">
        <g id="blog-read" transform="translate(-913.000000, -3539.000000)" fill="#969696">
            <g id="blo" transform="translate(375.000000, 107.000000)">
                <g id="Footer" transform="translate(200.000000, 3419.000000)">
                    <g id="Social" transform="translate(270.000000, 13.000000)">
                        <path d="M82.671875,0.5 L69.328125,0.5 C68.870625,0.5 68.5,0.870625 68.5,1.328125 L68.5,14.6725 C68.5,15.129375 68.870625,15.5 69.328125,15.5 L76.5125,15.5 L76.5125,9.69125 L74.5575,9.69125 L74.5575,7.4275 L76.5125,7.4275 L76.5125,5.758125 C76.5125,3.820625 77.695625,2.765625 79.424375,2.765625 C80.2525,2.765625 80.96375,2.8275 81.17125,2.855 L81.17125,4.88 L79.9725,4.880625 C79.0325,4.880625 78.850625,5.3275 78.850625,5.9825 L78.850625,7.428125 L81.0925,7.428125 L80.800625,9.691875 L78.850625,9.691875 L78.850625,15.5 L82.673125,15.5 C83.129375,15.5 83.5,15.129375 83.5,14.671875 L83.5,1.328125 C83.5,0.870625 83.129375,0.5 82.671875,0.5 Z" id="fb"></path>
                    </g>
                </g>
            </g>
        </g>
    </g>
</svg>