<svg xmlns="http://www.w3.org/2000/svg" xmlns:xlink="http://www.w3.org/1999/xlink" viewBox="0 0 161.25 36.28"><defs><style>.cls-1{fill:#3a4c5a;}.cls-2{fill:url(#linear-gradient);}.cls-3{fill:#fff;}</style><linearGradient id="linear-gradient" x1="5.91" y1="8.44" x2="33.87" y2="30.55" gradientUnits="userSpaceOnUse"><stop offset="0" stop-color="#e70f74"/><stop offset="1" stop-color="#ff2525"/></linearGradient></defs><title>Asset 1</title><g id="Layer_2" data-name="Layer 2"><g id="Layer_1-2" data-name="Layer 1"><path class="cls-1" d="M45.16,31.3c0-3,2.2-4.72,6.09-4.95l4.83-.29V24.54c0-2.07-1.29-3.2-3.79-3.2-2,0-3.39.76-3.77,2.08H45.83c.35-2.68,3-4.45,6.56-4.45,4.07,0,6.35,2.09,6.35,5.57V36H56.2V33.52H56a5.77,5.77,0,0,1-5.15,2.76C47.56,36.28,45.16,34.35,45.16,31.3Zm10.92-1.55V28.21l-4.5.3c-2.54.17-3.66,1-3.66,2.73s1.44,2.7,3.38,2.7C54.05,33.94,56.08,32.14,56.08,29.75Z"/><path class="cls-1" d="M63.5,12.63h2.67V36H63.5Z"/><path class="cls-1" d="M74.78,14.94v4.32h3.73V21.5H74.78V31c0,2,.75,2.8,2.48,2.8a10.56,10.56,0,0,0,1.25-.06V36a9.29,9.29,0,0,1-1.57.16c-3.44,0-4.82-1.27-4.82-4.47V21.5h-2.7V19.26h2.7V14.94Z"/><path class="cls-1" d="M82,19.26h2.54v2.49h.25c.5-1.63,2.42-2.78,4.64-2.78a10.68,10.68,0,0,1,1.33.08v2.66A11.13,11.13,0,0,0,89,21.56a4.09,4.09,0,0,0-4.38,4.06V36H82Z"/><path class="cls-1" d="M107.45,36h-2.54V33.36h-.25c-.84,1.86-2.62,2.92-5.18,2.92-3.76,0-5.71-2.24-5.71-6.19V19.26h2.67V29.44c0,3,1.11,4.4,3.78,4.4,3,0,4.56-1.75,4.56-4.68v-9.9h2.67Z"/><path class="cls-1" d="M111.68,14a1.86,1.86,0,1,1,1.86,1.86A1.86,1.86,0,0,1,111.68,14Zm.53,5.25h2.67V36h-2.67Z"/><path class="cls-1" d="M125.41,19c3.5,0,5.94,1.74,6.3,4.48h-2.64c-.36-1.33-1.66-2.22-3.68-2.22s-3.53,1-3.53,2.5c0,1.15.93,1.86,2.9,2.34l2.57.62c3.15.76,4.67,2.13,4.67,4.53,0,3-2.9,5.06-6.7,5.06s-6.28-1.79-6.57-4.56h2.74c.45,1.41,1.78,2.31,3.92,2.31s3.87-1.07,3.87-2.61c0-1.14-.87-1.92-2.66-2.35l-2.87-.7c-3.13-.76-4.56-2.11-4.56-4.53C119.17,21.06,121.86,19,125.41,19Z"/><path class="cls-1" d="M139.78,14.94v4.32h3.72V21.5h-3.72V31c0,2,.74,2.8,2.48,2.8a10.5,10.5,0,0,0,1.24-.06V36a9.29,9.29,0,0,1-1.57.16c-3.44,0-4.82-1.27-4.82-4.47V21.5h-2.7V19.26h2.7V14.94Z"/><path class="cls-1" d="M145.83,27.62c0-5.38,2.95-8.65,7.71-8.65s7.71,3.27,7.71,8.65-2.95,8.66-7.71,8.66S145.83,33,145.83,27.62Zm12.66,0c0-4-1.78-6.25-5-6.25s-4.94,2.28-4.94,6.25,1.78,6.25,4.94,6.25S158.49,31.58,158.49,27.62Z"/><path class="cls-2" d="M18,0a18,18,0,0,0,0,36H36V18A18,18,0,0,0,18,0Z"/><path class="cls-3" d="M22.25,13a3.21,3.21,0,0,0-1.64-.45A3.32,3.32,0,0,0,18,13.8a3.32,3.32,0,0,0-2.61-1.3,3.21,3.21,0,0,0-1.64.45A3.65,3.65,0,0,0,12,16.1a3.75,3.75,0,0,0,.17,1.12C12.75,20,18,23.5,18,23.5s5.25-3.51,5.83-6.28A3.75,3.75,0,0,0,24,16.1,3.65,3.65,0,0,0,22.25,13Z"/></g></g></svg>