<svg height="480pt" viewBox="0 0 480 480" width="480pt" xmlns="http://www.w3.org/2000/svg"><path fill="#9BAAB8" d="m240 0c-132.546875 0-240 107.453125-240 240s107.453125 240 240 240 240-107.453125 240-240c-.164062-132.480469-107.519531-239.835938-240-240zm-152.238281 357.039062c-58.90625-76.550781-51.769531-184.945312 16.664062-253.113281 68.429688-68.167969 176.851563-74.882812 253.175781-15.6875l-58.960937 58.722657-14.960937-31.039063c-.15625-.363281-.34375-.710937-.558594-1.042969-4.019532-6.734375-11.277344-10.863281-19.121094-10.878906h-47.199219c-8.082031.136719-15.644531 4.007812-20.480469 10.480469-.296874.40625-.5625.835937-.800781 1.28125l-16.640625 36.238281h-10.878906v-8c.023438-2.128906-.8125-4.175781-2.320312-5.679688-1.503907-1.507812-3.550782-2.34375-5.679688-2.320312h-24c-2.128906-.023438-4.175781.8125-5.679688 2.320312-1.507812 1.503907-2.34375 3.550782-2.320312 5.679688v8.800781c-18.878906 3.378907-32.46875 20.027344-32 39.199219v96c-.347656 16.082031 9.214844 30.730469 24.078125 36.878906zm99.277343-98.878906-12.320312 12.238282c-12.773438-27.46875-6.988281-60 14.480469-81.378907 21.46875-21.378906 54.023437-27.03125 81.441406-14.140625l-12.320313 12.242188c-5.878906-2.097656-12.078124-3.152344-18.320312-3.121094-30.914062.035156-55.964844 25.085938-56 56-.027344 6.183594 1.003906 12.324219 3.039062 18.160156zm12.960938-114.160156 9.679688-20.640625c1.820312-1.902344 4.257812-3.097656 6.878906-3.359375h47.441406c1.679688 0 3.28125.238281 5.601562 3.441406l10.398438 20.558594zm21.839844 148.960938c5.835937 2.035156 11.976562 3.066406 18.160156 3.039062 30.914062-.035156 55.964844-25.085938 56-56 .03125-6.242188-1.023438-12.441406-3.121094-18.320312l12.242188-12.320313c4.539062 9.578125 6.886718 20.042969 6.878906 30.640625.003906 24.601562-12.550781 47.5-33.296875 60.726562-20.742187 13.222657-46.804687 14.941407-69.101563 4.554688zm18.160156 139.039062c-42.324219-.03125-83.457031-14.003906-117.039062-39.761719l64-64.238281h157.039062c10.679688.242188 20.996094-3.894531 28.550781-11.449219 7.554688-7.554687 11.691407-17.871093 11.449219-28.550781v-96c.339844-16.304688-9.484375-31.101562-24.640625-37.121094l32.402344-32.480468c44.875 57.917968 52.878906 136.320312 20.628906 202.109374-32.246094 65.789063-99.125 107.488282-172.390625 107.492188zm0 0"/></svg>