<svg xmlns="http://www.w3.org/2000/svg" xmlns:xlink="http://www.w3.org/1999/xlink" viewBox="0 0 36 36"><defs><style>.cls-1{fill:url(#linear-gradient);}</style><linearGradient id="linear-gradient" x1="5.91" y1="8.44" x2="33.87" y2="30.55" gradientUnits="userSpaceOnUse"><stop offset="0" stop-color="#e70f74"/><stop offset="1" stop-color="#ff2525"/></linearGradient></defs><title>Asset 5</title><g id="Layer_2" data-name="Layer 2"><g id="Layer_1-2" data-name="Layer 1"><path class="cls-1" d="M18,0a18,18,0,0,0,0,36H36V18A18,18,0,0,0,18,0Zm5.83,17.22C23.25,20,18,23.5,18,23.5S12.75,20,12.17,17.22A3.75,3.75,0,0,1,12,16.1,3.65,3.65,0,0,1,13.75,13a3.21,3.21,0,0,1,1.64-.45A3.32,3.32,0,0,1,18,13.8a3.32,3.32,0,0,1,2.61-1.3,3.21,3.21,0,0,1,1.64.45A3.65,3.65,0,0,1,24,16.1,3.75,3.75,0,0,1,23.83,17.22Z"/></g></g></svg>