<?xml version="1.0" encoding="UTF-8"?>
<svg width="16px" height="13px" viewBox="0 0 16 13" version="1.1" xmlns="http://www.w3.org/2000/svg" xmlns:xlink="http://www.w3.org/1999/xlink">
    <title>tw@2x</title>
    <g id="gotowe-designy" stroke="none" stroke-width="1" fill="none" fill-rule="evenodd">
        <g id="blog-read" transform="translate(-845.000000, -3541.000000)" fill="#969696">
            <g id="blo" transform="translate(375.000000, 107.000000)">
                <g id="Footer" transform="translate(200.000000, 3419.000000)">
                    <g id="Social" transform="translate(270.000000, 13.000000)">
                        <path d="M15.5,3.443125 C14.948125,3.688125 14.355,3.853125 13.7325,3.9275 C14.368125,3.546875 14.85625,2.94375 15.085625,2.225 C14.49125,2.5775 13.8325,2.83375 13.13125,2.971875 C12.570625,2.37375 11.77,2 10.885,2 C8.898125,2 7.438125,3.85375 7.886875,5.778125 C5.33,5.65 3.0625,4.425 1.544375,2.563125 C0.738125,3.94625 1.12625,5.755625 2.49625,6.671875 C1.9925,6.655625 1.5175,6.5175 1.103125,6.286875 C1.069375,7.7125 2.09125,9.04625 3.57125,9.343125 C3.138125,9.460625 2.66375,9.488125 2.18125,9.395625 C2.5725,10.618125 3.70875,11.5075 5.05625,11.5325 C3.7625,12.546875 2.1325,13 0.5,12.8075 C1.861875,13.680625 3.48,14.19 5.2175,14.19 C10.93125,14.19 14.159375,9.364375 13.964375,5.03625 C14.565625,4.601875 15.0875,4.06 15.5,3.443125 Z" id="tw"></path>
                    </g>
                </g>
            </g>
        </g>
    </g>
</svg>