<svg xmlns="http://www.w3.org/2000/svg" width="16" height="20" viewBox="0 0 16 20">
    <g fill="#5C6979" fill-rule="nonzero">
        <path d="M11.176 3.2H1.624C.728 3.2 0 3.921 0 4.81v13.58C0 19.28.728 20 1.624 20h9.552c.896 0 1.624-.721 1.624-1.61V4.81a1.623 1.623 0 0 0-1.624-1.61zm.484 15.186a.486.486 0 0 1-.488.484H1.62a.486.486 0 0 1-.488-.484V4.81c0-.267.219-.484.488-.484h9.552c.269 0 .488.217.488.484v13.576z"/>
        <path d="M14.376 0H4.824C3.928 0 3.2.721 3.2 1.61c0 .312.252.562.568.562.316 0 .568-.25.568-.562 0-.267.219-.484.488-.484h9.552c.27 0 .488.217.488.484v13.58a.486.486 0 0 1-.488.484.563.563 0 1 0 0 1.126c.896 0 1.624-.721 1.624-1.61V1.61C16 .72 15.272 0 14.376 0z"/>
    </g>
</svg>
