<svg fill="#3e505d" height="512pt" viewBox="0 -26 512.00003 512" width="512pt" xmlns="http://www.w3.org/2000/svg"><path d="m266.003906 289.960938c0 5.523437-4.476562 10-10 10-5.519531 0-9.996094-4.476563-9.996094-10 0-5.519532 4.476563-9.996094 9.996094-9.996094 5.523438 0 10 4.476562 10 9.996094zm0 0"/><path d="m491.269531 214.011719c-14.914062-10.445313-37.230469-19.695313-66.335937-27.492188-41.90625-11.234375-96.402344-17.046875-125.746094-14.011719-1.070312-4.429687-2.265625-8.609374-3.578125-12.527343h20.386719c16.539062 0 29.996094-13.457031 29.996094-29.996094v-7.890625c0-41.792969 20.761718-80.585938 55.539062-103.773438 4.59375-3.0625 5.835938-9.269531 2.773438-13.867187-3.0625-4.59375-9.273438-5.832031-13.867188-2.769531-40.351562 26.902344-64.441406 71.917968-64.441406 120.414062v7.886719c0 5.515625-4.488282 10-10 10h-25.363282c3.476563-6.015625 5.367188-12.910156 5.367188-19.996094 0-18.601562-12.765625-34.277343-29.996094-38.730469v-51.261718c0-5.519532-4.476562-9.996094-10-9.996094-5.519531 0-10 4.476562-10 9.996094v51.261718c-17.230468 4.449219-29.996094 20.125-29.996094 38.726563 0 7.089844 1.894532 13.984375 5.363282 19.996094h-25.359375c-5.511719 0-9.996094-4.484375-9.996094-9.996094v-7.890625c0-48.492188-24.09375-93.507812-64.445313-120.414062-4.589843-3.0625-10.800781-1.824219-13.863281 2.773437-3.0625 4.59375-1.824219 10.800781 2.769531 13.863281 34.777344 23.1875 55.539063 61.984375 55.539063 103.777344v7.890625c0 16.539063 13.457031 29.984375 29.996094 29.984375h20.386719c-1.3125 3.914062-2.503907 8.105469-3.574219 12.53125-28.898438-3.007812-81.644531 2.71875-123.773438 14.015625-62.554687 16.757813-94.714843 40.269531-88.230469 64.511719 9.027344 33.671875 75.175782 21.796875 108.933594 12.746094 31.839844-8.53125 70.492188-21.714844 96.402344-34.828126-.09375 3.617188-.144531 7.292969-.144531 11.023438 0 10.675781.414062 21.660156 1.183593 32.722656-25.523437 16.121094-41.152343 54.050782-48.449218 76.304688-14.078125 42.925781-45.507813 76.304687-86.226563 91.582031-5.171875 1.9375-7.792969 7.703125-5.851562 12.871094 1.933593 5.164062 7.691406 7.792969 12.871093 5.851562 46.433594-17.414062 82.230469-55.347656 98.210938-104.074219 8.546875-26.074218 19.835938-46.761718 31.671875-58.6875 2.84375 23.777344 7.3125 45.609376 12.902344 62.730469 8.9375 27.371094 19.957031 40.675781 33.679687 40.675781 13.726563 0 24.742188-13.304687 33.679688-40.675781 5.59375-17.121093 10.0625-38.953125 12.90625-62.730469 11.832031 11.925782 23.125 32.613282 31.671875 58.691407 15.976562 48.71875 51.773437 86.65625 98.207031 104.070312 5.183594 1.941407 10.9375-.6875 12.875-5.851562 1.9375-5.167969-.679688-10.933594-5.851562-12.871094-40.722657-15.273437-72.152344-48.65625-86.226563-91.582031-7.296875-22.253906-22.929687-60.183594-48.449219-76.304688.769532-11.0625 1.183594-22.046875 1.183594-32.722656 0-3.757812-.050781-7.460938-.148438-11.101562 26.902344 13.417968 67.457032 26.621093 98.375 34.90625 33.757813 9.046874 97.90625 20.925781 106.933594-12.746094 2.375-8.863282.855469-22.480469-19.890625-37.015625zm-235.265625-114.023438c11.027344 0 20 8.96875 20 19.996094 0 10.96875-8.917968 19.996094-20 19.996094-11.054687 0-19.996094-9-19.996094-19.996094 0-11.027344 8.972657-19.996094 19.996094-19.996094zm-151.425781 144.472657c-60.375 16.183593-83.019531 6.679687-84.441406 1.394531-1.574219-5.898438 14.890625-24.164063 74.089843-40.019531 41.480469-11.125 90.273438-15.761719 114.871094-13.625-.601562 4.21875-1.117187 8.613281-1.550781 13.148437-22.566406 13.9375-68.234375 29.792969-102.96875 39.101563zm166.808594 106.375c-6.921875 22.179687-13.476563 28.523437-15.382813 29.097656-1.902344-.570313-8.457031-6.917969-15.378906-29.097656-10.140625-32.480469-14.617188-76.351563-14.617188-110.867188 0-25.371094 2.46875-60.863281 13.34375-83.632812 5.179688 2.375 10.847657 3.644531 16.652344 3.644531 5.8125 0 11.480469-1.269531 16.65625-3.644531 10.886719 22.796874 13.339844 58.300781 13.339844 83.632812 0 34.515625-4.5 78.464844-14.613281 110.867188zm220.457031-104.988282c-1.6875 6.304688-24.0625 14.261719-82.441406-1.390625-37.332032-10.003906-82.953125-25.644531-104.941406-39.109375-.429688-4.53125-.945313-8.917968-1.546876-13.132812 25.023438-2.160156 75.5 2.535156 116.84375 13.617187 33.433594 8.957031 51.105469 18.300781 60.039063 24.558594 10.0625 7.046875 12.777344 12.734375 12.046875 15.457031zm0 0"/><path d="m256.003906 199.972656c-5.519531 0-9.996094 4.480469-9.996094 10v39.996094c0 5.519531 4.476563 9.996094 9.996094 9.996094 5.523438 0 10-4.476563 10-9.996094v-39.996094c0-5.519531-4.476562-10-10-10zm0 0"/></svg>