<svg xmlns="http://www.w3.org/2000/svg" width="12" height="10" viewBox="0 0 12 10">
    <path fill="#FFF" fill-rule="evenodd" d="M11.367 1.111a4.602 4.602 0 0 1-1.34.373 2.37 2.37 0 0 0 1.026-1.31c-.451.27-.95.468-1.481.574A2.312 2.312 0 0 0 7.87 0C6.364 0 5.258 1.427 5.598 2.91A6.586 6.586 0 0 1 .791.434c-.61 1.065-.317 2.458.722 3.163a2.294 2.294 0 0 1-1.056-.296c-.026 1.098.749 2.124 1.87 2.353a2.3 2.3 0 0 1-1.053.041 2.34 2.34 0 0 0 2.179 1.646A4.637 4.637 0 0 1 0 8.32a6.525 6.525 0 0 0 3.575 1.065c4.33 0 6.775-3.715 6.628-7.048a4.78 4.78 0 0 0 1.164-1.227z"/>
</svg>
